<svg width="102" height="18" viewBox="0 0 102 18" fill="none" xmlns="http://www.w3.org/2000/svg">
<path d="M20.7202 2.96L17.0602 17H12.9202L10.6802 7.76L8.36016 17H4.22016L0.660156 2.96H4.32016L6.34016 13.18L8.84016 2.96H12.6002L15.0002 13.18L17.0402 2.96H20.7202ZM24.1553 4.68C23.5553 4.68 23.062 4.50667 22.6753 4.16C22.302 3.8 22.1153 3.36 22.1153 2.84C22.1153 2.30667 22.302 1.86667 22.6753 1.52C23.062 1.16 23.5553 0.979999 24.1553 0.979999C24.742 0.979999 25.222 1.16 25.5953 1.52C25.982 1.86667 26.1753 2.30667 26.1753 2.84C26.1753 3.36 25.982 3.8 25.5953 4.16C25.222 4.50667 24.742 4.68 24.1553 4.68ZM25.8553 5.84V17H22.4353V5.84H25.8553ZM31.7538 7.7C32.1538 7.08667 32.6538 6.60667 33.2538 6.26C33.8538 5.9 34.5204 5.72 35.2538 5.72V9.34H34.3138C33.4604 9.34 32.8204 9.52667 32.3938 9.9C31.9671 10.26 31.7538 10.9 31.7538 11.82V17H28.3338V5.84H31.7538V7.7ZM47.4084 11.24C47.4084 11.56 47.3884 11.8933 47.3484 12.24H39.6084C39.6618 12.9333 39.8818 13.4667 40.2684 13.84C40.6684 14.2 41.1551 14.38 41.7284 14.38C42.5818 14.38 43.1751 14.02 43.5084 13.3H47.1484C46.9618 14.0333 46.6218 14.6933 46.1284 15.28C45.6484 15.8667 45.0418 16.3267 44.3084 16.66C43.5751 16.9933 42.7551 17.16 41.8484 17.16C40.7551 17.16 39.7818 16.9267 38.9284 16.46C38.0751 15.9933 37.4084 15.3267 36.9284 14.46C36.4484 13.5933 36.2084 12.58 36.2084 11.42C36.2084 10.26 36.4418 9.24667 36.9084 8.38C37.3884 7.51333 38.0551 6.84667 38.9084 6.38C39.7618 5.91333 40.7418 5.68 41.8484 5.68C42.9284 5.68 43.8884 5.90667 44.7284 6.36C45.5684 6.81333 46.2218 7.46 46.6884 8.3C47.1684 9.14 47.4084 10.12 47.4084 11.24ZM43.9084 10.34C43.9084 9.75333 43.7084 9.28667 43.3084 8.94C42.9084 8.59333 42.4084 8.42 41.8084 8.42C41.2351 8.42 40.7484 8.58667 40.3484 8.92C39.9618 9.25333 39.7218 9.72667 39.6284 10.34H43.9084ZM48.6327 9.96C48.6327 8.57333 48.9327 7.34 49.5327 6.26C50.1327 5.16667 50.966 4.32 52.0327 3.72C53.1127 3.10667 54.3327 2.8 55.6927 2.8C57.3593 2.8 58.786 3.24 59.9727 4.12C61.1593 5 61.9527 6.2 62.3527 7.72H58.5927C58.3127 7.13333 57.9127 6.68667 57.3927 6.38C56.886 6.07333 56.306 5.92 55.6527 5.92C54.5993 5.92 53.746 6.28667 53.0927 7.02C52.4393 7.75333 52.1127 8.73333 52.1127 9.96C52.1127 11.1867 52.4393 12.1667 53.0927 12.9C53.746 13.6333 54.5993 14 55.6527 14C56.306 14 56.886 13.8467 57.3927 13.54C57.9127 13.2333 58.3127 12.7867 58.5927 12.2H62.3527C61.9527 13.72 61.1593 14.92 59.9727 15.8C58.786 16.6667 57.3593 17.1 55.6927 17.1C54.3327 17.1 53.1127 16.8 52.0327 16.2C50.966 15.5867 50.1327 14.74 49.5327 13.66C48.9327 12.58 48.6327 11.3467 48.6327 9.96ZM69.527 17.16C68.4337 17.16 67.447 16.9267 66.567 16.46C65.7004 15.9933 65.0137 15.3267 64.507 14.46C64.0137 13.5933 63.767 12.58 63.767 11.42C63.767 10.2733 64.0204 9.26667 64.527 8.4C65.0337 7.52 65.727 6.84667 66.607 6.38C67.487 5.91333 68.4737 5.68 69.567 5.68C70.6604 5.68 71.647 5.91333 72.527 6.38C73.407 6.84667 74.1004 7.52 74.607 8.4C75.1137 9.26667 75.367 10.2733 75.367 11.42C75.367 12.5667 75.107 13.58 74.587 14.46C74.0804 15.3267 73.3804 15.9933 72.487 16.46C71.607 16.9267 70.6204 17.16 69.527 17.16ZM69.527 14.2C70.1804 14.2 70.7337 13.96 71.187 13.48C71.6537 13 71.887 12.3133 71.887 11.42C71.887 10.5267 71.6604 9.84 71.207 9.36C70.767 8.88 70.2204 8.64 69.567 8.64C68.9004 8.64 68.347 8.88 67.907 9.36C67.467 9.82667 67.247 10.5133 67.247 11.42C67.247 12.3133 67.4604 13 67.887 13.48C68.327 13.96 68.8737 14.2 69.527 14.2ZM76.5014 11.4C76.5014 10.2533 76.7147 9.24667 77.1414 8.38C77.5814 7.51333 78.1747 6.84667 78.9214 6.38C79.6681 5.91333 80.5014 5.68 81.4214 5.68C82.1547 5.68 82.8214 5.83333 83.4214 6.14C84.0347 6.44667 84.5147 6.86 84.8614 7.38V2.2H88.2814V17H84.8614V15.4C84.5414 15.9333 84.0814 16.36 83.4814 16.68C82.8947 17 82.2081 17.16 81.4214 17.16C80.5014 17.16 79.6681 16.9267 78.9214 16.46C78.1747 15.98 77.5814 15.3067 77.1414 14.44C76.7147 13.56 76.5014 12.5467 76.5014 11.4ZM84.8614 11.42C84.8614 10.5667 84.6214 9.89333 84.1414 9.4C83.6747 8.90667 83.1014 8.66 82.4214 8.66C81.7414 8.66 81.1614 8.90667 80.6814 9.4C80.2147 9.88 79.9814 10.5467 79.9814 11.4C79.9814 12.2533 80.2147 12.9333 80.6814 13.44C81.1614 13.9333 81.7414 14.18 82.4214 14.18C83.1014 14.18 83.6747 13.9333 84.1414 13.44C84.6214 12.9467 84.8614 12.2733 84.8614 11.42ZM101.276 11.24C101.276 11.56 101.256 11.8933 101.216 12.24H93.4756C93.529 12.9333 93.749 13.4667 94.1356 13.84C94.5356 14.2 95.0223 14.38 95.5956 14.38C96.449 14.38 97.0423 14.02 97.3756 13.3H101.016C100.829 14.0333 100.489 14.6933 99.9956 15.28C99.5156 15.8667 98.909 16.3267 98.1756 16.66C97.4423 16.9933 96.6223 17.16 95.7156 17.16C94.6223 17.16 93.649 16.9267 92.7956 16.46C91.9423 15.9933 91.2756 15.3267 90.7956 14.46C90.3156 13.5933 90.0756 12.58 90.0756 11.42C90.0756 10.26 90.309 9.24667 90.7756 8.38C91.2556 7.51333 91.9223 6.84667 92.7756 6.38C93.629 5.91333 94.609 5.68 95.7156 5.68C96.7956 5.68 97.7556 5.90667 98.5956 6.36C99.4356 6.81333 100.089 7.46 100.556 8.3C101.036 9.14 101.276 10.12 101.276 11.24ZM97.7756 10.34C97.7756 9.75333 97.5756 9.28667 97.1756 8.94C96.7756 8.59333 96.2756 8.42 95.6756 8.42C95.1023 8.42 94.6156 8.58667 94.2156 8.92C93.829 9.25333 93.589 9.72667 93.4956 10.34H97.7756Z" fill="url(#paint0_linear_1_17)"/>
<defs>
<linearGradient id="paint0_linear_1_17" x1="0" y1="25" x2="103.352" y2="0.763371" gradientUnits="userSpaceOnUse">
<stop stop-color="#7C3AED"/>
<stop offset="1" stop-color="#2563EB"/>
</linearGradient>
</defs>
</svg>
